<?xml version="1.0" encoding="UTF-8"?><svg id="Capa_2" xmlns="http://www.w3.org/2000/svg" viewBox="0 0 223.64 66.43"><g id="Capa_1-2"><g><path d="M4.23,66.43V10.83L0,8.41l2.28-3.99c.72-1.19,1.77-1.96,3.15-2.31,1.37-.35,2.68-.21,3.91,.42l2.28,1.26L15.73,1.47c.8-.42,1.64-.63,2.55-.63s1.75,.21,2.55,.63l9.11,5.04c1.66,.98,2.5,2.42,2.5,4.31v15.56c0,1.96-.87,3.43-2.6,4.41l-5.21,2.63,5.21,2.73c1.74,.91,2.6,2.35,2.6,4.31v15.14c0,1.96-.83,3.4-2.5,4.31l-9.11,5.04c-1.67,.98-3.36,.98-5.1,0l-1.63-.84v2.31H4.23ZM14.11,33.63l8.35-4.52V13.56l-8.35-4.62v24.7Zm0,23.86l8.35-4.52v-11.56l-8.35-4.73v20.81Z"/><path d="M36.35,55.71V26.17c0-1.89,.87-3.33,2.6-4.31,2.82-1.54,5.82-3.22,9.01-5.04,1.74-.91,3.44-.91,5.1,0l9.12,5.04c1.66,.98,2.5,2.42,2.5,4.31v7.36c0,1.89-.83,3.33-2.5,4.31l-15.84,8.83v6.41l4.23,2.31,4.67-2.63c1.16-.7,2.4-.89,3.74-.58,1.34,.31,2.37,1.07,3.09,2.26l2.6,3.99-11.61,6.62c-1.66,.91-3.36,.91-5.1,0l-9.01-5.05c-1.74-.98-2.6-2.42-2.6-4.31Zm9.98-15.66l8.36-4.62v-6.52l-8.36-4.62v15.77Z"/><path d="M67.93,10.62l-4.12-2.21L68.69,0l6.73,3.68c1.66,.98,2.5,2.42,2.5,4.31V55.81l4.23,2.21-4.88,8.41-6.73-3.68c-1.74-.98-2.6-2.42-2.6-4.31V10.62Z"/><path d="M102.43,28.9l-8.25-4.62v31.53l4.12,2.21-4.88,8.41-6.73-3.68c-1.67-.98-2.5-2.42-2.5-4.31V26.07l-4.23-2.21,2.28-4.1c.72-1.19,1.77-1.96,3.15-2.31,1.37-.42,2.68-.28,3.91,.42l2.28,1.26,4.12-2.31c1.74-.91,3.47-.91,5.21,0l6.62,3.68,6.51-3.68c1.74-.91,3.47-.91,5.21,0l9.01,5.04c1.66,.98,2.5,2.42,2.5,4.31v29.64l4.23,2.21-4.88,8.41-6.73-3.68c-1.74-.98-2.6-2.42-2.6-4.31V28.9l-8.25-4.62v31.53l4.12,2.21-4.88,8.41-6.73-3.68c-1.74-.98-2.6-2.42-2.6-4.31V28.9Z"/><path d="M162.33,21.86c1.74,.98,2.6,2.42,2.6,4.31v29.53c0,1.89-.87,3.33-2.6,4.31l-9.01,5.05c-1.67,.98-3.36,.98-5.1,0-1.01-.56-2.53-1.4-4.56-2.52-2.03-1.12-3.54-1.96-4.56-2.52-1.67-.98-2.5-2.42-2.5-4.31V26.17c0-1.89,.83-3.33,2.5-4.31,4.05-2.24,7.09-3.92,9.12-5.04,1.74-.91,3.43-.91,5.1,0l9.01,5.04Zm-7.38,35.84V28.9l-8.36-4.62v28.8l8.36,4.62Z"/><path d="M189.02,28.9l-8.36-4.62v31.53l4.23,2.21-4.88,8.41-6.73-3.68c-1.67-.98-2.5-2.42-2.5-4.31V26.07l-4.23-2.21,2.28-4.1c.72-1.19,1.77-1.96,3.15-2.31,1.37-.35,2.68-.21,3.91,.42l2.28,1.26,4.12-2.31c1.74-.91,3.44-.91,5.1,0l9.11,5.04c1.66,.91,2.5,2.35,2.5,4.31v29.64l4.23,2.21-4.88,8.41-6.73-3.68c-1.74-.98-2.6-2.42-2.6-4.31V28.9Z"/><path d="M215.07,7.99v6.31h8.57l-2.5,4.2c-1.01,1.61-2.5,2.42-4.45,2.42h-1.63V55.81l4.23,2.21-4.88,8.41-6.73-3.68c-1.67-.98-2.5-2.42-2.5-4.31V20.92h-4.12l4.12-6.62v-3.68l-4.23-2.21,4.88-8.41,6.73,3.68c1.66,.98,2.5,2.42,2.5,4.31Z"/></g></g></svg>